<svg id="visual" viewBox="0 0 900 600" width="900" height="600" xmlns="http://www.w3.org/2000/svg" xmlns:xlink="http://www.w3.org/1999/xlink" version="1.1"><rect x="0" y="0" width="900" height="600" fill="#ffffff"></rect><path d="M0 379L21.5 380.2C43 381.3 86 383.7 128.8 394.3C171.7 405 214.3 424 257.2 428.7C300 433.3 343 423.7 385.8 410.8C428.7 398 471.3 382 514.2 385.5C557 389 600 412 642.8 413.8C685.7 415.7 728.3 396.3 771.2 398.3C814 400.3 857 423.7 878.5 435.3L900 447L900 601L878.5 601C857 601 814 601 771.2 601C728.3 601 685.7 601 642.8 601C600 601 557 601 514.2 601C471.3 601 428.7 601 385.8 601C343 601 300 601 257.2 601C214.3 601 171.7 601 128.8 601C86 601 43 601 21.5 601L0 601Z" fill="#faae00"></path><path d="M0 473L21.5 473.2C43 473.3 86 473.7 128.8 462.3C171.7 451 214.3 428 257.2 417.5C300 407 343 409 385.8 414C428.7 419 471.3 427 514.2 434.2C557 441.3 600 447.7 642.8 441.5C685.7 435.3 728.3 416.7 771.2 411.8C814 407 857 416 878.5 420.5L900 425L900 601L878.5 601C857 601 814 601 771.2 601C728.3 601 685.7 601 642.8 601C600 601 557 601 514.2 601C471.3 601 428.7 601 385.8 601C343 601 300 601 257.2 601C214.3 601 171.7 601 128.8 601C86 601 43 601 21.5 601L0 601Z" fill="#fbbd40"></path><path d="M0 439L21.5 445.3C43 451.7 86 464.3 128.8 473.3C171.7 482.3 214.3 487.7 257.2 487.7C300 487.7 343 482.3 385.8 484.7C428.7 487 471.3 497 514.2 499.2C557 501.3 600 495.7 642.8 486.8C685.7 478 728.3 466 771.2 466.3C814 466.7 857 479.3 878.5 485.7L900 492L900 601L878.5 601C857 601 814 601 771.2 601C728.3 601 685.7 601 642.8 601C600 601 557 601 514.2 601C471.3 601 428.7 601 385.8 601C343 601 300 601 257.2 601C214.3 601 171.7 601 128.8 601C86 601 43 601 21.5 601L0 601Z" fill="#fccb65"></path><path d="M0 504L21.5 507.3C43 510.7 86 517.3 128.8 516.5C171.7 515.7 214.3 507.3 257.2 504.5C300 501.7 343 504.3 385.8 510.5C428.7 516.7 471.3 526.3 514.2 523C557 519.7 600 503.3 642.8 501C685.7 498.7 728.3 510.3 771.2 510.2C814 510 857 498 878.5 492L900 486L900 601L878.5 601C857 601 814 601 771.2 601C728.3 601 685.7 601 642.8 601C600 601 557 601 514.2 601C471.3 601 428.7 601 385.8 601C343 601 300 601 257.2 601C214.3 601 171.7 601 128.8 601C86 601 43 601 21.5 601L0 601Z" fill="#fdd988"></path><path d="M0 529L21.5 529.7C43 530.3 86 531.7 128.8 534.3C171.7 537 214.3 541 257.2 545.2C300 549.3 343 553.7 385.8 557.8C428.7 562 471.3 566 514.2 567.7C557 569.3 600 568.7 642.8 561.8C685.7 555 728.3 542 771.2 542.3C814 542.7 857 556.3 878.5 563.2L900 570L900 601L878.5 601C857 601 814 601 771.2 601C728.3 601 685.7 601 642.8 601C600 601 557 601 514.2 601C471.3 601 428.7 601 385.8 601C343 601 300 601 257.2 601C214.3 601 171.7 601 128.8 601C86 601 43 601 21.5 601L0 601Z" fill="#ffe6aa"></path></svg>