<svg xmlns="http://www.w3.org/2000/svg" version="1.1" xmlns:xlink="http://www.w3.org/1999/xlink" xmlns:svgjs="http://svgjs.dev/svgjs" width="1440" height="560" preserveAspectRatio="none" viewBox="0 0 1440 560"><g mask="url(&quot;#SvgjsMask1263&quot;)" fill="none"><path d="M1026.6 28.2L1032.18 16.67 1044.65 19.59 1050.23 8.06 1062.7 10.98 1068.29-0.55 1080.76 2.37M1030.04 35.42L1035.63 23.89 1048.1 26.81 1053.68 15.28 1066.15 18.2 1071.73 6.67 1084.2 9.59" stroke="#d3b714" stroke-width="1" stroke-dasharray="4, 4"></path><rect width="264" height="264" clip-path="url(&quot;#SvgjsClipPath1264&quot;)" x="173.58" y="215.62" fill="url(&quot;#SvgjsPattern1265&quot;)" transform="rotate(156.68, 305.58, 347.62)"></rect><path d="M38.97 361.02a5.6 5.6 0 1 0-7.29-8.51 5.6 5.6 0 1 0 7.29 8.51zM28.55 348.87a5.6 5.6 0 1 0-7.29-8.51 5.6 5.6 0 1 0 7.29 8.51zM18.14 336.72a5.6 5.6 0 1 0-7.29-8.5 5.6 5.6 0 1 0 7.29 8.5zM7.73 324.57a5.6 5.6 0 1 0-7.29-8.5 5.6 5.6 0 1 0 7.29 8.5zM71.94 374.9a5.6 5.6 0 1 0-7.29-8.5 5.6 5.6 0 1 0 7.29 8.5zM61.53 362.75a5.6 5.6 0 1 0-7.29-8.5 5.6 5.6 0 1 0 7.29 8.5zM51.11 350.6a5.6 5.6 0 1 0-7.28-8.5 5.6 5.6 0 1 0 7.28 8.5zM40.7 338.46a5.6 5.6 0 1 0-7.29-8.51 5.6 5.6 0 1 0 7.29 8.51z" stroke="#037b0b" stroke-width="1.72" stroke-dasharray="4, 4"></path><path d="M1310.23 315.75 L1249.06 279.81L1329.4607721534012 247.96422784659885z" stroke="#037b0b" stroke-width="2.76" stroke-dasharray="2, 2"></path><circle r="46.666666666666664" cx="539.49" cy="120.91" fill="#e73635"></circle><rect width="336" height="336" clip-path="url(&quot;#SvgjsClipPath1266&quot;)" x="833.03" y="367.41" fill="url(&quot;#SvgjsPattern1267&quot;)" transform="rotate(133.26, 1001.03, 535.41)"></rect><path d="M1204.46 57.620000000000005 L1073.5800000000002 184.3L1034.8958930639953 16.83589306399537z" stroke="rgba(250, 174, 0, 1)" stroke-width="2.99" stroke-dasharray="4, 4"></path><path d="M454.56 191.96L442.26 188.36 443.08 175.58 430.78 171.98 431.59 159.2 419.3 155.61 420.11 142.83M461.11 187.37L448.82 183.77 449.63 170.99 437.33 167.39 438.15 154.61 425.85 151.02 426.67 138.23" stroke="rgba(250, 174, 0, 1)" stroke-width="1.05" stroke-dasharray="4, 4"></path><path d="M525.81 391.84000000000003 L426.79 422.6L426.550738779368 357.47073877936805z" stroke="rgba(255, 102, 0, 1)" stroke-width="2.59" stroke-dasharray="3, 2"></path><rect width="96" height="96" clip-path="url(&quot;#SvgjsClipPath1268&quot;)" x="926.2" y="302.83" fill="url(&quot;#SvgjsPattern1269&quot;)" transform="rotate(341.69, 974.2, 350.83)"></rect><rect width="172.76" height="172.76" clip-path="url(&quot;#SvgjsClipPath1270&quot;)" x="1232.69" y="-0.77" fill="url(&quot;#SvgjsPattern1271&quot;)" transform="rotate(184.75, 1319.07, 85.61)"></rect><rect width="206.08" height="206.08" clip-path="url(&quot;#SvgjsClipPath1272&quot;)" x="1023" y="314.05" fill="url(&quot;#SvgjsPattern1273&quot;)" transform="rotate(97.39, 1126.04, 417.09)"></rect></g><defs><mask id="SvgjsMask1263"><rect width="1440" height="560" fill="#ffffff"></rect></mask><pattern x="0" y="0" width="6" height="6" patternUnits="userSpaceOnUse" id="SvgjsPattern1265"><path d="M0 6L3 0L6 6" stroke="#e73635" fill="none"></path></pattern><clipPath id="SvgjsClipPath1264"><circle r="66" cx="305.58" cy="347.62"></circle></clipPath><pattern x="0" y="0" width="336" height="6" patternUnits="userSpaceOnUse" id="SvgjsPattern1267"><rect width="336" height="3" x="0" y="0" fill="rgba(250, 174, 0, 1)"></rect><rect width="336" height="3" x="0" y="3" fill="rgba(0, 0, 0, 0)"></rect></pattern><clipPath id="SvgjsClipPath1266"><circle r="84" cx="1001.03" cy="535.41"></circle></clipPath><pattern x="0" y="0" width="6" height="6" patternUnits="userSpaceOnUse" id="SvgjsPattern1269"><path d="M0 6L3 0L6 6" stroke="rgba(255, 102, 0, 1)" fill="none"></path></pattern><clipPath id="SvgjsClipPath1268"><circle r="24" cx="974.2" cy="350.83"></circle></clipPath><pattern x="0" y="0" width="12.34" height="12.34" patternUnits="userSpaceOnUse" id="SvgjsPattern1271"><path d="M6.17 1L6.17 11.34M1 6.17L11.34 6.17" stroke="rgba(250, 174, 0, 1)" fill="none" stroke-width="4.3"></path></pattern><clipPath id="SvgjsClipPath1270"><circle r="43.19" cx="1319.07" cy="85.61"></circle></clipPath><pattern x="0" y="0" width="6.44" height="6.44" patternUnits="userSpaceOnUse" id="SvgjsPattern1273"><path d="M3.22 1L3.22 5.44M1 3.22L5.44 3.22" stroke="#037b0b" fill="none" stroke-width="1"></path></pattern><clipPath id="SvgjsClipPath1272"><circle r="51.52" cx="1126.04" cy="417.09"></circle></clipPath></defs></svg>