<svg xmlns="http://www.w3.org/2000/svg" version="1.1" xmlns:xlink="http://www.w3.org/1999/xlink" xmlns:svgjs="http://svgjs.dev/svgjs" width="560" height="560" preserveAspectRatio="none" viewBox="0 0 560 560"><g mask="url(&quot;#SvgjsMask1008&quot;)" fill="none"><path d="M446.51-30.98C363.6 26.19 379.46 311.45 264.41 328.33 149.36 345.21 173.36 258.33 82.31 258.33-8.74 258.33-51.03 327.14-99.79 328.33" stroke="rgba(249, 173, 6, 1)" stroke-width="2"></path><path d="M539.45-28.44C450.91-14.19 446.73 164.78 263.4 200.61 80.07 236.44 82.15 453.06-12.65 475.01" stroke="rgba(249, 173, 6, 1)" stroke-width="2"></path><path d="M426.61-73.27C330.98-45.35 342.47 184.46 162.09 224.79-18.29 265.12-17.74 429.7-102.43 443.19" stroke="rgba(249, 173, 6, 1)" stroke-width="2"></path><path d="M365.45-84.43C283.34-52.59 301.62 160.2 153.84 197.2 6.06 234.2 7.56 345.77-57.77 354" stroke="rgba(249, 173, 6, 1)" stroke-width="2"></path><path d="M371.42-34.96C264.26 60.73 282.94 483.44 152.02 496.19 21.1 508.94 11.08 277.24-67.38 255.39" stroke="rgba(249, 173, 6, 1)" stroke-width="2"></path></g><defs><mask id="SvgjsMask1008"><rect width="560" height="560" fill="#ffffff"></rect></mask></defs></svg>